# xmcd
#
# Track frame offsets: 
#        150
#        15739
#        32982
#        57920
#        92599
#        102849
#        130607
#        154567
#        172179
#
# Disc length: 2491 seconds
#
# Revision: 0
# Processed by: cddbd v1.5.2PL0 Copyright (c) Steve Scherf et al.
# Submitted via: ExactAudioCopy v1.0b4
#
DISCID=6a09b909
DTITLE=Kidd Afrika - Rhythm and Blues (LP)
DYEAR=1978
DGENRE=Blues
TTITLE0=I Believe In You
TTITLE1=Handouts
TTITLE2=She' s My Lady
TTITLE3=I' m Gonna Be More
TTITLE4=Spread This News Around
TTITLE5=Don't Mess With Mr  T
TTITLE6=Take The Bait
TTITLE7=Marmalade And Jam
TTITLE8=Apologize
EXTD=
EXTT0=
EXTT1=
EXTT2=
EXTT3=
EXTT4=
EXTT5=
EXTT6=
EXTT7=
EXTT8=
PLAYORDER=
